<svg width="244" height="199" viewBox="0 0 244 199" fill="none" xmlns="http://www.w3.org/2000/svg">
<g clip-path="url(#clip0_499_92388)">
<path d="M122.5 188.866C171.754 188.866 211.683 148.937 211.683 99.6829C211.683 50.4286 171.754 10.5 122.5 10.5C73.2456 10.5 33.3171 50.4286 33.3171 99.6829C33.3171 148.937 73.2456 188.866 122.5 188.866Z" fill="url(#paint0_linear_499_92388)"/>
<g filter="url(#filter0_d_499_92388)">
<rect x="77.0233" y="36.2163" width="92.6786" height="115.37" rx="16" fill="url(#paint1_linear_499_92388)"/>
</g>
<rect x="85.2092" y="53.5" width="50" height="6.5" rx="3.25" fill="#00609D"/>
<rect x="85.2092" y="72" width="74.4185" height="6.5" rx="3.25" fill="#D5D5D5"/>
<rect x="85.2092" y="90.5" width="74.4185" height="6.5" rx="3.25" fill="#D5D5D5"/>
<rect x="85.2092" y="109" width="74.4185" height="6.5" rx="3.25" fill="#D5D5D5"/>
<rect x="85.2092" y="127.5" width="74.4185" height="6.5" rx="3.25" fill="#D5D5D5"/>
<g filter="url(#filter1_d_499_92388)">
<path d="M225.228 23.4668H180.516C178.433 23.4668 176.744 25.2443 176.744 27.4369V49.5535C176.744 51.7461 178.433 53.5236 180.516 53.5236H225.228C227.311 53.5236 229 51.7461 229 49.5535V27.4369C229 25.2443 227.311 23.4668 225.228 23.4668Z" fill="white"/>
</g>
<path d="M187.907 43.2442C190.373 43.2442 192.372 41.2451 192.372 38.7791C192.372 36.3131 190.373 34.314 187.907 34.314C185.441 34.314 183.442 36.3131 183.442 38.7791C183.442 41.2451 185.441 43.2442 187.907 43.2442Z" fill="#ACDCFF"/>
<rect x="198.325" y="34.314" width="23.8139" height="8.93022" rx="4.46511" fill="#D5D5D5"/>
<path fill-rule="evenodd" clip-rule="evenodd" d="M148.546 156.779C158.132 156.779 167.039 153.88 174.441 148.91L204.729 177.823L215.713 165.079L186.487 137.179C191.884 129.583 195.058 120.296 195.058 110.268C195.058 84.5803 174.234 63.7563 148.546 63.7563C122.859 63.7563 102.035 84.5803 102.035 110.268C102.035 135.956 122.859 156.779 148.546 156.779ZM188.218 110.268C188.218 132.015 170.588 149.645 148.841 149.645C127.093 149.645 109.464 132.015 109.464 110.268C109.464 88.5206 127.093 70.8908 148.841 70.8908C170.588 70.8908 188.218 88.5206 188.218 110.268Z" fill="#ACDCFF"/>
<g filter="url(#filter2_b_499_92388)">
<path d="M148.837 150.407C171.237 150.407 189.395 132.415 189.395 110.221C189.395 88.027 171.237 70.0352 148.837 70.0352C126.437 70.0352 108.279 88.027 108.279 110.221C108.279 132.415 126.437 150.407 148.837 150.407Z" fill="white" fill-opacity="0.3"/>
</g>
<path d="M155.85 110.221L165.665 100.444C166.584 99.4766 167.088 98.1911 167.069 96.8605C167.05 95.53 166.51 94.2592 165.563 93.3183C164.616 92.3773 163.338 91.8404 161.999 91.8215C160.66 91.8027 159.367 92.3034 158.394 93.2173L148.557 102.994L138.742 93.2173C138.27 92.7205 137.702 92.3229 137.072 92.048C136.443 91.773 135.764 91.6264 135.076 91.6167C134.389 91.607 133.706 91.7345 133.069 91.9916C132.432 92.2487 131.853 92.6302 131.367 93.1135C130.88 93.5968 130.497 94.1721 130.238 94.8054C129.979 95.4387 129.851 96.1171 129.861 96.8006C129.87 97.484 130.018 98.1586 130.295 98.7843C130.571 99.4101 130.971 99.9744 131.471 100.444L141.303 110.221L131.471 119.998C130.971 120.467 130.571 121.032 130.295 121.657C130.018 122.283 129.87 122.958 129.861 123.641C129.851 124.325 129.979 125.003 130.238 125.636C130.497 126.27 130.88 126.845 131.367 127.328C131.853 127.812 132.432 128.193 133.069 128.45C133.706 128.707 134.389 128.835 135.076 128.825C135.764 128.815 136.443 128.669 137.072 128.394C137.702 128.119 138.27 127.721 138.742 127.224L148.579 117.447L158.416 127.224C159.398 128.084 160.674 128.54 161.982 128.498C163.29 128.455 164.533 127.919 165.458 126.997C166.382 126.076 166.918 124.839 166.956 123.538C166.995 122.238 166.533 120.972 165.665 119.998L155.85 110.221Z" fill="#00609D"/>
<path d="M204.726 177.825L215.711 165.08L217.365 166.66C218.97 168.192 219.931 170.333 220.037 172.611C220.142 174.889 219.384 177.118 217.928 178.807C216.472 180.497 214.437 181.508 212.273 181.619C210.108 181.73 207.99 180.932 206.385 179.399L204.73 177.82L204.726 177.825Z" fill="#E1DCEB"/>
<path fill-rule="evenodd" clip-rule="evenodd" d="M52.6991 56.7669C52.685 55.7057 52.5519 54.6353 52.2857 53.5576C51.3519 49.7756 47.1861 47.3476 42.7522 46.7767C38.3201 46.2058 33.7111 47.5049 31.9347 50.7947C30.9187 52.6757 30.7785 54.2968 31.1937 55.6636C31.6071 57.0231 32.5881 58.1502 33.9195 59.0284C37.6316 61.4747 44.1327 61.9742 47.0985 60.9514C48.4702 60.4775 49.8103 59.9067 51.1154 59.2535C50.3691 63.5295 47.589 67.5805 43.8786 71.2308C35.815 79.1644 23.3017 85.1859 16.4871 87.3999C16.121 87.5188 15.9178 87.925 16.0316 88.3074C16.1455 88.6898 16.5344 88.9039 16.9005 88.785C23.85 86.5271 36.6068 80.3775 44.8299 72.2865C49.0781 68.1075 52.1052 63.4033 52.622 58.4576C62.2255 53.0984 70.1122 43.3753 76.855 35.1929C77.1055 34.891 77.0722 34.4317 76.7814 34.17C76.4906 33.9102 76.0526 33.9431 75.8021 34.2469C69.3344 42.0945 61.8278 51.4297 52.6991 56.7669ZM51.3029 57.5445C51.3555 56.3516 51.2433 55.1403 50.9402 53.9181C50.1326 50.6447 46.4205 48.7089 42.5823 48.2149C40.2296 47.913 37.8103 48.1618 35.9131 49.0474C34.7201 49.6036 33.7373 50.4105 33.1452 51.5083C32.3674 52.9483 32.1992 54.1797 32.518 55.2245C32.8368 56.2766 33.6288 57.1219 34.6606 57.8007C38.0433 60.0311 43.9627 60.505 46.6623 59.5737C48.2547 59.0248 49.7998 58.3405 51.3029 57.5445Z" fill="#00609D"/>
<circle cx="222.883" cy="125.848" r="4.46511" fill="#E3E3E3"/>
<path fill-rule="evenodd" clip-rule="evenodd" d="M54.2396 156.653C55.0364 156.354 55.875 155.957 56.5216 155.382C57.2896 154.699 57.6019 153.82 57.8117 152.894C58.081 151.704 58.1886 150.437 58.5151 149.246C58.636 148.803 58.8687 148.636 58.9685 148.562C59.2208 148.374 59.4759 148.324 59.7159 148.343C60.0003 148.365 60.3909 148.478 60.6478 148.98C60.6845 149.052 60.7321 149.161 60.7641 149.311C60.7875 149.421 60.8026 149.764 60.8273 149.906C60.8892 150.255 60.9409 150.604 60.9895 150.955C61.1511 152.123 61.2441 153.114 61.7547 154.187C62.4476 155.644 63.1419 156.535 64.0835 156.93C64.9939 157.311 66.0824 157.24 67.4733 156.94C67.6056 156.906 67.7366 156.878 67.8662 156.854C68.4794 156.741 69.0656 157.165 69.186 157.808C69.3065 158.45 68.9168 159.076 68.309 159.217C68.1822 159.247 68.0572 159.275 67.9335 159.3C66.054 159.79 63.8783 161.538 62.6138 163.068C62.2241 163.54 61.6535 164.859 61.0714 165.7C60.6419 166.321 60.1592 166.73 59.7539 166.875C59.4823 166.972 59.2533 166.957 59.0642 166.908C58.7894 166.837 58.5614 166.68 58.3864 166.431C58.2912 166.295 58.2028 166.112 58.1606 165.879C58.1405 165.766 58.1382 165.481 58.1387 165.352C58.0201 164.922 57.8749 164.503 57.7691 164.07C57.5167 163.036 57.0217 162.382 56.4337 161.517C55.8837 160.708 55.2929 160.199 54.4269 159.793C54.3142 159.764 53.4052 159.53 53.0842 159.396C52.6152 159.199 52.3917 158.869 52.3107 158.691C52.1728 158.389 52.1586 158.125 52.1861 157.906C52.2269 157.581 52.3652 157.304 52.6106 157.079C52.7627 156.94 52.9898 156.805 53.2939 156.739C53.5288 156.687 54.1521 156.657 54.2396 156.653ZM59.5725 154.968C59.6147 155.067 59.6595 155.166 59.7072 155.266C60.722 157.4 61.8568 158.59 63.2362 159.168L63.2825 159.187C62.3597 159.908 61.5243 160.714 60.8859 161.487C60.6231 161.805 60.275 162.465 59.8991 163.143C59.5574 161.974 58.9987 161.148 58.2962 160.114C57.7595 159.325 57.1971 158.732 56.506 158.248C57.0423 157.958 57.5538 157.619 57.9994 157.223C58.7413 156.563 59.2318 155.798 59.5725 154.968Z" fill="#ACDCFF"/>
</g>
<defs>
<filter id="filter0_d_499_92388" x="47.0233" y="26.2163" width="152.679" height="175.37" filterUnits="userSpaceOnUse" color-interpolation-filters="sRGB">
<feFlood flood-opacity="0" result="BackgroundImageFix"/>
<feColorMatrix in="SourceAlpha" type="matrix" values="0 0 0 0 0 0 0 0 0 0 0 0 0 0 0 0 0 0 127 0" result="hardAlpha"/>
<feOffset dy="20"/>
<feGaussianBlur stdDeviation="15"/>
<feComposite in2="hardAlpha" operator="out"/>
<feColorMatrix type="matrix" values="0 0 0 0 0.570833 0 0 0 0 0.570833 0 0 0 0 0.570833 0 0 0 0.19 0"/>
<feBlend mode="normal" in2="BackgroundImageFix" result="effect1_dropShadow_499_92388"/>
<feBlend mode="normal" in="SourceGraphic" in2="effect1_dropShadow_499_92388" result="shape"/>
</filter>
<filter id="filter1_d_499_92388" x="169.744" y="14.4668" width="78.2559" height="56.0566" filterUnits="userSpaceOnUse" color-interpolation-filters="sRGB">
<feFlood flood-opacity="0" result="BackgroundImageFix"/>
<feColorMatrix in="SourceAlpha" type="matrix" values="0 0 0 0 0 0 0 0 0 0 0 0 0 0 0 0 0 0 127 0" result="hardAlpha"/>
<feOffset dx="6" dy="4"/>
<feGaussianBlur stdDeviation="6.5"/>
<feComposite in2="hardAlpha" operator="out"/>
<feColorMatrix type="matrix" values="0 0 0 0 0.104618 0 0 0 0 0.465612 0 0 0 0 0.545833 0 0 0 0.09 0"/>
<feBlend mode="normal" in2="BackgroundImageFix" result="effect1_dropShadow_499_92388"/>
<feBlend mode="normal" in="SourceGraphic" in2="effect1_dropShadow_499_92388" result="shape"/>
</filter>
<filter id="filter2_b_499_92388" x="100.279" y="62.0352" width="97.1161" height="96.3721" filterUnits="userSpaceOnUse" color-interpolation-filters="sRGB">
<feFlood flood-opacity="0" result="BackgroundImageFix"/>
<feGaussianBlur in="BackgroundImageFix" stdDeviation="4"/>
<feComposite in2="SourceAlpha" operator="in" result="effect1_backgroundBlur_499_92388"/>
<feBlend mode="normal" in="SourceGraphic" in2="effect1_backgroundBlur_499_92388" result="shape"/>
</filter>
<linearGradient id="paint0_linear_499_92388" x1="121.813" y1="-18.5401" x2="123.639" y2="294.657" gradientUnits="userSpaceOnUse">
<stop stop-color="#F2F2F2"/>
<stop offset="1" stop-color="#EFEFEF"/>
</linearGradient>
<linearGradient id="paint1_linear_499_92388" x1="123.363" y1="36.2163" x2="123.363" y2="151.586" gradientUnits="userSpaceOnUse">
<stop stop-color="white"/>
<stop offset="0.71875" stop-color="#FAFAFA"/>
</linearGradient>
<clipPath id="clip0_499_92388">
<rect width="244" height="198" fill="white" transform="translate(0 0.5)"/>
</clipPath>
</defs>
</svg>
