<svg width="172" height="146" viewBox="0 0 172 146" fill="none" xmlns="http://www.w3.org/2000/svg">
<path d="M76.2993 124.5C111.586 124.5 140.192 96.6297 140.192 62.25C140.192 27.8703 111.586 0 76.2993 0C41.0121 0 12.4062 27.8703 12.4062 62.25C12.4062 96.6297 41.0121 124.5 76.2993 124.5Z" fill="url(#paint0_linear_1806_65862)"/>
<g filter="url(#filter0_d_1806_65862)">
<rect x="43.7188" y="17.9507" width="66.3975" height="80.5288" rx="16" fill="url(#paint1_linear_1806_65862)"/>
</g>
<rect x="49.5835" y="28.4971" width="50" height="6.5" rx="3.25" fill="#00609D"/>
<rect x="49.5835" y="41.9971" width="53.3154" height="6.5" rx="3.25" fill="#D5D5D5"/>
<rect x="49.5835" y="55.4971" width="53.3154" height="6.5" rx="3.25" fill="#D5D5D5"/>
<rect x="49.5835" y="68.9971" width="53.3154" height="6.5" rx="3.25" fill="#D5D5D5"/>
<rect x="49.5835" y="82.4971" width="53.3154" height="6.5" rx="3.25" fill="#D5D5D5"/>
<g filter="url(#filter1_d_1806_65862)">
<path d="M149.897 9.05078H117.864C116.372 9.05078 115.162 10.2915 115.162 11.822V27.2594C115.162 28.7898 116.372 30.0305 117.864 30.0305H149.897C151.389 30.0305 152.599 28.7898 152.599 27.2594V11.822C152.599 10.2915 151.389 9.05078 149.897 9.05078Z" fill="white"/>
</g>
<path d="M123.159 22.8554C124.926 22.8554 126.358 21.46 126.358 19.7387C126.358 18.0174 124.926 16.6221 123.159 16.6221C121.392 16.6221 119.96 18.0174 119.96 19.7387C119.96 21.46 121.392 22.8554 123.159 22.8554Z" fill="#ACDCFF"/>
<rect x="130.623" y="16.6221" width="17.0609" height="6.23333" rx="3.11666" fill="#D5D5D5"/>
<path fill-rule="evenodd" clip-rule="evenodd" d="M94.9598 102.103C101.827 102.103 108.209 100.08 113.512 96.6107L135.21 116.792L143.08 107.896L122.141 88.4222C126.008 83.1201 128.282 76.6378 128.282 69.6381C128.282 51.708 113.363 37.1729 94.9598 37.1729C76.5565 37.1729 61.6377 51.708 61.6377 69.6381C61.6377 87.5682 76.5565 102.103 94.9598 102.103ZM123.382 69.6383C123.382 84.8181 110.751 97.1238 95.1708 97.1238C79.5904 97.1238 66.9599 84.8181 66.9599 69.6383C66.9599 54.4585 79.5904 42.1529 95.1708 42.1529C110.751 42.1529 123.382 54.4585 123.382 69.6383Z" fill="#ACDCFF"/>
<g filter="url(#filter2_b_1806_65862)">
<path d="M95.1677 97.6551C111.215 97.6551 124.225 85.0967 124.225 69.6051C124.225 54.1136 111.215 41.5552 95.1677 41.5552C79.1201 41.5552 66.1108 54.1136 66.1108 69.6051C66.1108 85.0967 79.1201 97.6551 95.1677 97.6551Z" fill="white" fill-opacity="0.3"/>
</g>
<path d="M100.192 69.6057L107.224 62.7813C107.883 62.1062 108.244 61.2089 108.23 60.2802C108.217 59.3515 107.829 58.4644 107.151 57.8077C106.473 57.1509 105.557 56.7761 104.598 56.7629C103.639 56.7498 102.712 57.0993 102.015 57.7372L94.9676 64.5616L87.9358 57.7372C87.5975 57.3904 87.1907 57.1129 86.7396 56.921C86.2886 56.7291 85.8024 56.6267 85.3097 56.62C84.8171 56.6132 84.3281 56.7022 83.8716 56.8816C83.4151 57.0611 83.0004 57.3274 82.652 57.6647C82.3036 58.0021 82.0286 58.4036 81.8433 58.8457C81.658 59.2877 81.5661 59.7613 81.5731 60.2383C81.5801 60.7154 81.6858 61.1862 81.884 61.623C82.0821 62.0598 82.3687 62.4537 82.7269 62.7813L89.7704 69.6057L82.7269 76.4301C82.3687 76.7578 82.0821 77.1517 81.884 77.5884C81.6858 78.0252 81.5801 78.4961 81.5731 78.9731C81.5661 79.4501 81.658 79.9237 81.8433 80.3657C82.0286 80.8078 82.3036 81.2094 82.652 81.5467C83.0004 81.8841 83.4151 82.1503 83.8716 82.3298C84.3281 82.5092 84.8171 82.5982 85.3097 82.5915C85.8024 82.5847 86.2886 82.4823 86.7396 82.2905C87.1907 82.0986 87.5975 81.821 87.9358 81.4742L94.9833 74.6498L102.031 81.4742C102.735 82.0745 103.648 82.3923 104.586 82.3629C105.523 82.3335 106.414 81.9591 107.076 81.3159C107.738 80.6727 108.122 79.8093 108.149 78.9015C108.177 77.9936 107.846 77.1098 107.224 76.4301L100.192 69.6057Z" fill="#00609D"/>
<path d="M135.208 116.793L143.078 107.897L144.263 109C145.413 110.069 146.102 111.564 146.177 113.154C146.253 114.744 145.709 116.3 144.666 117.479C143.623 118.658 142.166 119.364 140.615 119.441C139.064 119.519 137.547 118.962 136.397 117.892L135.211 116.79L135.208 116.793Z" fill="#E1DCEB"/>
<path fill-rule="evenodd" clip-rule="evenodd" d="M26.2922 32.2942C26.2822 31.5535 26.1868 30.8063 25.996 30.0541C25.3271 27.4142 22.3426 25.7195 19.166 25.321C15.9907 24.9225 12.6887 25.8293 11.4161 28.1256C10.6881 29.4385 10.5877 30.5701 10.8852 31.5241C11.1814 32.473 11.8842 33.2597 12.838 33.8727C15.4975 35.5803 20.155 35.9289 22.2798 35.215C23.2625 34.8842 24.2226 34.4858 25.1576 34.0299C24.623 37.0145 22.6312 39.8421 19.973 42.39C14.196 47.9277 5.23114 52.1308 0.348983 53.6761C0.0866763 53.7591 -0.0589222 54.0427 0.0226563 54.3096C0.104235 54.5765 0.382852 54.7259 0.645158 54.6429C5.62396 53.0669 14.7633 48.7745 20.6545 43.1269C23.698 40.21 25.8667 36.9264 26.237 33.4743C33.1172 29.7335 38.7675 22.9468 43.5982 17.2354C43.7776 17.0247 43.7538 16.7041 43.5455 16.5215C43.3371 16.3402 43.0233 16.3631 42.8438 16.5751C38.2102 22.0528 32.8323 28.5688 26.2922 32.2942ZM25.292 32.837C25.3296 32.0043 25.2492 31.1588 25.0321 30.3057C24.4535 28.0209 21.7941 26.6697 19.0443 26.3249C17.3587 26.1141 15.6255 26.2878 14.2663 26.906C13.4116 27.2942 12.7075 27.8574 12.2833 28.6237C11.726 29.6288 11.6055 30.4883 11.834 31.2176C12.0624 31.9519 12.6297 32.542 13.3689 33.0158C15.7925 34.5726 20.0333 34.9034 21.9673 34.2534C23.1081 33.8702 24.2151 33.3926 25.292 32.837Z" fill="#00609D"/>
<ellipse cx="148.217" cy="80.5136" rx="3.19893" ry="3.11666" fill="#E3E3E3"/>
<path fill-rule="evenodd" clip-rule="evenodd" d="M27.3959 102.015C27.9668 101.807 28.5676 101.53 29.0308 101.128C29.5811 100.652 29.8048 100.038 29.9551 99.3913C30.148 98.5611 30.2251 97.6767 30.459 96.8451C30.5456 96.5362 30.7123 96.4195 30.7839 96.3677C30.9646 96.2368 31.1474 96.2019 31.3193 96.215C31.523 96.2301 31.8029 96.3092 31.987 96.6594C32.0132 96.7095 32.0473 96.7859 32.0703 96.8905C32.087 96.9672 32.0979 97.207 32.1156 97.3059C32.1599 97.5495 32.197 97.7931 32.2317 98.038C32.3475 98.8531 32.4142 99.5454 32.78 100.294C33.2764 101.311 33.7738 101.933 34.4484 102.208C35.1006 102.475 35.8805 102.425 36.8769 102.216C36.9717 102.192 37.0656 102.172 37.1584 102.156C37.5977 102.077 38.0177 102.373 38.104 102.821C38.1903 103.27 37.9111 103.707 37.4757 103.805C37.3848 103.826 37.2952 103.845 37.2066 103.863C35.8601 104.205 34.3014 105.425 33.3955 106.493C33.1163 106.822 32.7075 107.743 32.2905 108.33C31.9827 108.764 31.6369 109.049 31.3465 109.15C31.152 109.218 30.9879 109.208 30.8524 109.173C30.6556 109.124 30.4922 109.014 30.3669 108.84C30.2986 108.745 30.2353 108.618 30.2051 108.455C30.1907 108.376 30.189 108.177 30.1893 108.087C30.1044 107.787 30.0004 107.495 29.9246 107.192C29.7438 106.471 29.3891 106.014 28.9678 105.41C28.5738 104.846 28.1506 104.491 27.5301 104.207C27.4494 104.187 26.7982 104.024 26.5682 103.93C26.2322 103.792 26.0721 103.562 26.014 103.438C25.9153 103.227 25.9051 103.043 25.9248 102.89C25.954 102.663 26.0531 102.469 26.2289 102.313C26.3378 102.216 26.5006 102.121 26.7184 102.075C26.8868 102.039 27.3333 102.018 27.3959 102.015ZM31.2166 100.839C31.2468 100.908 31.2789 100.978 31.3131 101.047C32.0401 102.536 32.8531 103.368 33.8414 103.771L33.8745 103.784C33.2134 104.287 32.6149 104.85 32.1576 105.389C31.9693 105.611 31.7199 106.072 31.4505 106.545C31.2058 105.73 30.8055 105.153 30.3022 104.431C29.9177 103.881 29.5148 103.466 29.0197 103.129C29.4039 102.926 29.7704 102.689 30.0896 102.413C30.6211 101.952 30.9725 101.419 31.2166 100.839Z" fill="#ACDCFF"/>
<defs>
<filter id="filter0_d_1806_65862" x="13.7188" y="7.95068" width="126.397" height="140.529" filterUnits="userSpaceOnUse" color-interpolation-filters="sRGB">
<feFlood flood-opacity="0" result="BackgroundImageFix"/>
<feColorMatrix in="SourceAlpha" type="matrix" values="0 0 0 0 0 0 0 0 0 0 0 0 0 0 0 0 0 0 127 0" result="hardAlpha"/>
<feOffset dy="20"/>
<feGaussianBlur stdDeviation="15"/>
<feComposite in2="hardAlpha" operator="out"/>
<feColorMatrix type="matrix" values="0 0 0 0 0.570833 0 0 0 0 0.570833 0 0 0 0 0.570833 0 0 0 0.19 0"/>
<feBlend mode="normal" in2="BackgroundImageFix" result="effect1_dropShadow_1806_65862"/>
<feBlend mode="normal" in="SourceGraphic" in2="effect1_dropShadow_1806_65862" result="shape"/>
</filter>
<filter id="filter1_d_1806_65862" x="108.162" y="0.0507812" width="63.4375" height="46.98" filterUnits="userSpaceOnUse" color-interpolation-filters="sRGB">
<feFlood flood-opacity="0" result="BackgroundImageFix"/>
<feColorMatrix in="SourceAlpha" type="matrix" values="0 0 0 0 0 0 0 0 0 0 0 0 0 0 0 0 0 0 127 0" result="hardAlpha"/>
<feOffset dx="6" dy="4"/>
<feGaussianBlur stdDeviation="6.5"/>
<feComposite in2="hardAlpha" operator="out"/>
<feColorMatrix type="matrix" values="0 0 0 0 0.104618 0 0 0 0 0.465612 0 0 0 0 0.545833 0 0 0 0.09 0"/>
<feBlend mode="normal" in2="BackgroundImageFix" result="effect1_dropShadow_1806_65862"/>
<feBlend mode="normal" in="SourceGraphic" in2="effect1_dropShadow_1806_65862" result="shape"/>
</filter>
<filter id="filter2_b_1806_65862" x="58.1108" y="33.5552" width="74.1138" height="72.1001" filterUnits="userSpaceOnUse" color-interpolation-filters="sRGB">
<feFlood flood-opacity="0" result="BackgroundImageFix"/>
<feGaussianBlur in="BackgroundImageFix" stdDeviation="4"/>
<feComposite in2="SourceAlpha" operator="in" result="effect1_backgroundBlur_1806_65862"/>
<feBlend mode="normal" in="SourceGraphic" in2="effect1_backgroundBlur_1806_65862" result="shape"/>
</filter>
<linearGradient id="paint0_linear_1806_65862" x1="75.8068" y1="-20.2701" x2="77.0492" y2="198.343" gradientUnits="userSpaceOnUse">
<stop stop-color="#F2F2F2"/>
<stop offset="1" stop-color="#EFEFEF"/>
</linearGradient>
<linearGradient id="paint1_linear_1806_65862" x1="76.9175" y1="17.9507" x2="76.9175" y2="98.4795" gradientUnits="userSpaceOnUse">
<stop stop-color="white"/>
<stop offset="0.71875" stop-color="#FAFAFA"/>
</linearGradient>
</defs>
</svg>
