<svg width="43" height="37" viewBox="0 0 43 37" fill="none" xmlns="http://www.w3.org/2000/svg">
<path fill-rule="evenodd" clip-rule="evenodd" d="M11.873 0.94622C12.3915 1.84259 12.0852 2.98957 11.1888 3.50809C8.34825 5.15127 5.93484 7.45321 4.15859 10.2045C3.59693 11.0745 2.43635 11.3244 1.56637 10.7627C0.696393 10.2011 0.446454 9.0405 1.00812 8.17052C3.10583 4.92132 5.95501 2.20346 9.31112 0.262064C10.2075 -0.256453 11.3545 0.0498547 11.873 0.94622ZM31.1269 0.94622C31.6454 0.0498547 32.7924 -0.256453 33.6887 0.262064C37.0448 2.20346 39.894 4.92132 41.9917 8.17052C42.5534 9.0405 42.3035 10.2011 41.4335 10.7627C40.5635 11.3244 39.4029 11.0745 38.8413 10.2045C37.065 7.45321 34.6516 5.15127 31.811 3.50809C30.9147 2.98957 30.6083 1.84259 31.1269 0.94622ZM21.5 6.37501C14.2512 6.37501 8.37498 12.2513 8.37498 19.5C8.37498 26.7487 14.2512 32.625 21.5 32.625C28.7487 32.625 34.625 26.7487 34.625 19.5C34.625 12.2513 28.7487 6.37501 21.5 6.37501ZM4.62498 19.5C4.62498 10.1802 12.1802 2.62501 21.5 2.62501C30.8198 2.62501 38.375 10.1802 38.375 19.5C38.375 23.4844 36.9941 27.1463 34.6848 30.0332L37.8258 33.1742C38.558 33.9064 38.558 35.0936 37.8258 35.8258C37.0936 36.5581 35.9064 36.5581 35.1742 35.8258L32.0331 32.6848C29.1463 34.9941 25.4844 36.375 21.5 36.375C17.5156 36.375 13.8537 34.9941 10.9668 32.6848L7.82581 35.8258C7.09357 36.5581 5.90639 36.5581 5.17416 35.8258C4.44192 35.0936 4.44192 33.9064 5.17416 33.1742L8.31517 30.0332C6.00587 27.1463 4.62498 23.4844 4.62498 19.5ZM21.5 10.125C22.5355 10.125 23.375 10.9645 23.375 12V18.7227L26.5759 21.9243C27.3081 22.6566 27.308 23.8438 26.5757 24.576C25.8434 25.3081 24.6562 25.308 23.924 24.5757L20.1746 20.8255C19.8228 20.4736 19.625 19.9963 19.625 19.4985V12C19.625 10.9645 20.4644 10.125 21.5 10.125Z" fill="#00A98F"/>
</svg>
