<svg width="37" height="44" viewBox="0 0 37 44" fill="none" xmlns="http://www.w3.org/2000/svg">
<path fill-rule="evenodd" clip-rule="evenodd" d="M4.98623 6.83325C5.33876 7.10589 5.96051 7.43372 6.89411 7.74492C8.77188 8.37084 11.4906 8.79159 14.5833 8.79159C17.6761 8.79159 20.3948 8.37084 22.2726 7.74492C23.2062 7.43372 23.8279 7.10589 24.1804 6.83325C23.8279 6.56061 23.2062 6.23279 22.2726 5.92159C20.3948 5.29566 17.6761 4.87492 14.5833 4.87492C11.4906 4.87492 8.77188 5.29566 6.89411 5.92159C5.96051 6.23279 5.33876 6.56061 4.98623 6.83325ZM24.375 11.1439C24.094 11.2572 23.8052 11.3626 23.5111 11.4606C21.1362 12.2522 17.9799 12.7083 14.5833 12.7083C11.1867 12.7083 8.03044 12.2522 5.65555 11.4606C5.36151 11.3626 5.07266 11.2572 4.79167 11.1439V14.4949C4.82639 14.5319 4.88225 14.5848 4.96886 14.653C5.31817 14.9283 5.94498 15.2619 6.89411 15.5782C8.77188 16.2042 11.4906 16.6249 14.5833 16.6249C17.6761 16.6249 20.3948 16.2042 22.2726 15.5782C23.2217 15.2619 23.8485 14.9283 24.1978 14.653C24.2844 14.5848 24.3403 14.5319 24.375 14.4949V11.1439ZM24.4257 14.4314C24.4261 14.4314 24.4239 14.4358 24.4177 14.4444C24.4222 14.4357 24.4253 14.4314 24.4257 14.4314ZM4.74098 14.4314C4.74141 14.4314 4.7445 14.4357 4.74897 14.4444C4.74278 14.4358 4.74055 14.4314 4.74098 14.4314ZM28.2917 6.83325V12.976C30.0058 13.2814 31.5485 13.7259 32.7847 14.2988C33.6007 14.6769 34.3793 15.1547 34.9808 15.7663C35.5898 16.3856 36.125 17.2618 36.125 18.3604V26.1938C36.125 27.5918 35.2732 28.6119 34.4555 29.2564C33.6156 29.9183 32.5217 30.4287 31.3445 30.8211C30.432 31.1253 29.4042 31.3799 28.2917 31.5781V37.721C28.2917 39.119 27.4399 40.1391 26.6221 40.7836C25.7823 41.4455 24.6883 41.9559 23.5111 42.3483C21.1362 43.14 17.9799 43.596 14.5833 43.596C11.1867 43.596 8.03044 43.14 5.65555 42.3483C4.47834 41.9559 3.38441 41.4455 2.54455 40.7836C1.72677 40.1391 0.875 39.119 0.875 37.721V29.8876C0.875 28.789 1.41019 27.9128 2.01922 27.2935C2.62068 26.6819 3.39928 26.2041 4.21531 25.826C5.45154 25.2531 6.99424 24.8086 8.70833 24.5032V20.0509C7.59585 19.8527 6.56802 19.5981 5.65555 19.2939C4.47834 18.9015 3.38441 18.3911 2.54455 17.7292C1.72677 17.0847 0.875 16.0646 0.875 14.6666V6.83325C0.875 5.43525 1.72677 4.41509 2.54455 3.77061C3.38441 3.10873 4.47834 2.59831 5.65555 2.20591C8.03044 1.41428 11.1867 0.958252 14.5833 0.958252C17.9799 0.958252 21.1362 1.41428 23.5111 2.20591C24.6883 2.59831 25.7823 3.10873 26.6221 3.77061C27.4399 4.41509 28.2917 5.43525 28.2917 6.83325ZM12.625 22.6711V26.0221C12.6597 26.0591 12.7156 26.112 12.8022 26.1802C13.1515 26.4555 13.7783 26.7891 14.7274 27.1055C16.6052 27.7314 19.3239 28.1521 22.4167 28.1521C25.5094 28.1521 28.2281 27.7314 30.1059 27.1055C31.055 26.7891 31.6818 26.4555 32.0311 26.1802C32.1178 26.112 32.1736 26.0591 32.2083 26.0221V22.6711C31.9273 22.7843 31.6385 22.8897 31.3445 22.9877C28.9696 23.7794 25.8132 24.2354 22.4167 24.2354C19.0201 24.2354 15.8638 23.7794 13.4889 22.9877C13.1948 22.8897 12.906 22.7843 12.625 22.6711ZM32.251 18.1382C32.2555 18.1295 32.2586 18.1252 32.259 18.1252C32.2595 18.1252 32.2572 18.1296 32.251 18.1382ZM32.0138 18.3604C31.6613 18.633 31.0395 18.9608 30.1059 19.2721C28.2281 19.898 25.5094 20.3187 22.4167 20.3187C21.4221 20.3187 20.4663 20.2752 19.5647 20.1954C21.0229 19.983 22.359 19.678 23.5111 19.2939C24.6883 18.9015 25.7823 18.3911 26.6221 17.7292C26.9366 17.4814 27.2561 17.178 27.5303 16.8189C29.0347 17.0819 30.2644 17.4476 31.1381 17.8525C31.5474 18.0422 31.8298 18.2181 32.0138 18.3604ZM12.5743 18.1252C12.5747 18.1252 12.5778 18.1295 12.5823 18.1382C12.5761 18.1296 12.5739 18.1252 12.5743 18.1252ZM32.259 25.9586C32.2595 25.9586 32.2572 25.963 32.251 25.9716C32.2555 25.9629 32.2586 25.9586 32.259 25.9586ZM12.5743 25.9586C12.5747 25.9586 12.5778 25.9629 12.5823 25.9716C12.5761 25.963 12.5739 25.9586 12.5743 25.9586ZM9.46969 28.3461C7.96532 28.6091 6.73565 28.9748 5.86193 29.3797C5.45257 29.5694 5.17019 29.7453 4.9862 29.8876C5.33873 30.1602 5.96049 30.488 6.89411 30.7993C8.77188 31.4252 11.4906 31.8459 14.5833 31.8459C15.5778 31.8459 16.5337 31.8024 17.4353 31.7226C15.9771 31.5102 14.641 31.2052 13.4889 30.8211C12.3117 30.4287 11.2177 29.9183 10.3779 29.2564C10.0634 29.0086 9.74386 28.7052 9.46969 28.3461ZM24.375 34.1983C24.094 34.3115 23.8052 34.4169 23.5111 34.5149C21.1362 35.3066 17.9799 35.7626 14.5833 35.7626C11.1867 35.7626 8.03044 35.3066 5.65555 34.5149C5.36151 34.4169 5.07266 34.3115 4.79167 34.1983V37.5493C4.82639 37.5863 4.88225 37.6392 4.96886 37.7074C5.31817 37.9827 5.94498 38.3163 6.89411 38.6327C8.77188 39.2586 11.4906 39.6793 14.5833 39.6793C17.6761 39.6793 20.3948 39.2586 22.2726 38.6327C23.2217 38.3163 23.8485 37.9827 24.1978 37.7074C24.2844 37.6392 24.3403 37.5863 24.375 37.5493V34.1983ZM24.4257 37.4858C24.4261 37.4858 24.4239 37.4902 24.4177 37.4988C24.4222 37.4901 24.4253 37.4858 24.4257 37.4858ZM4.74098 37.4858C4.74141 37.4858 4.7445 37.4901 4.74897 37.4988C4.74278 37.4902 4.74055 37.4858 4.74098 37.4858ZM4.74098 29.6524C4.74141 29.6524 4.7445 29.6567 4.74897 29.6654C4.74278 29.6568 4.74054 29.6524 4.74098 29.6524ZM24.4177 29.6654C24.4222 29.6567 24.4253 29.6524 24.4257 29.6524C24.4261 29.6524 24.4239 29.6568 24.4177 29.6654ZM24.4177 6.61106C24.4222 6.60234 24.4253 6.59802 24.4257 6.59805C24.4261 6.59807 24.4239 6.60244 24.4177 6.61106ZM4.74897 6.61106C4.74278 6.60244 4.74055 6.59807 4.74098 6.59805C4.74141 6.59802 4.7445 6.60234 4.74897 6.61106Z" fill="#00A98F"/>
</svg>
