<svg width="35" height="41" viewBox="0 0 35 41" fill="none" xmlns="http://www.w3.org/2000/svg">
<path fill-rule="evenodd" clip-rule="evenodd" d="M28.8103 4.54487C28.2791 4.50146 27.581 4.5 26.5 4.5H10.0001C8.96456 4.5 8.12509 3.66054 8.12509 2.625C8.12509 1.58947 8.96456 0.750003 10.0001 0.750003L26.5723 0.750002C27.5607 0.749968 28.4134 0.749939 29.1157 0.807321C29.857 0.867885 30.5942 1.0016 31.3037 1.36309C32.3621 1.90238 33.2226 2.76289 33.7619 3.82131C34.1234 4.53077 34.2571 5.26805 34.3177 6.00933C34.3751 6.71164 34.375 7.5643 34.375 8.55269V34.5C34.375 35.5355 33.5355 36.375 32.5 36.375C31.4645 36.375 30.625 35.5355 30.625 34.5V8.625C30.625 7.54397 30.6235 6.84595 30.5801 6.3147C30.5385 5.80533 30.4679 5.61648 30.4206 5.52377C30.2409 5.17097 29.954 4.88413 29.6012 4.70437C29.5085 4.65713 29.3197 4.58648 28.8103 4.54487ZM8.42773 6.375H20.9473C21.9357 6.37497 22.7884 6.37494 23.4907 6.43232C24.232 6.49289 24.9692 6.6266 25.6787 6.98809C26.7371 7.52738 27.5976 8.3879 28.1369 9.44631C28.4984 10.1558 28.6321 10.8931 28.6927 11.6343C28.7501 12.3367 28.75 13.1894 28.75 14.1778V32.3222C28.75 33.3107 28.7501 34.1633 28.6927 34.8657C28.6321 35.607 28.4984 36.3442 28.1369 37.0537C27.5976 38.1121 26.7371 38.9726 25.6787 39.5119C24.9692 39.8734 24.232 40.0071 23.4907 40.0677C22.7884 40.1251 21.9357 40.125 20.9473 40.125H8.42769C7.4393 40.125 6.58664 40.1251 5.88433 40.0677C5.14305 40.0071 4.40577 39.8734 3.69631 39.5119C2.6379 38.9726 1.77738 38.1121 1.23809 37.0537C0.876603 36.3442 0.742885 35.607 0.682321 34.8657C0.624939 34.1634 0.624968 33.3107 0.625002 32.3223V14.1777C0.624968 13.1893 0.624939 12.3366 0.682321 11.6343C0.742885 10.8931 0.876603 10.1558 1.23809 9.44631C1.77738 8.3879 2.6379 7.52738 3.69631 6.98809C4.40577 6.6266 5.14305 6.49289 5.88433 6.43232C6.58665 6.37494 7.43933 6.37497 8.42773 6.375ZM6.1897 10.1699C5.68033 10.2115 5.49148 10.2821 5.39877 10.3294C5.04597 10.5091 4.75913 10.796 4.57937 11.1488C4.53213 11.2415 4.46148 11.4303 4.41987 11.9397C4.37646 12.471 4.375 13.169 4.375 14.25V32.25C4.375 33.331 4.37646 34.0291 4.41987 34.5603C4.46148 35.0697 4.53213 35.2585 4.57937 35.3512C4.75913 35.704 5.04597 35.9909 5.39877 36.1706C5.49148 36.2179 5.68033 36.2885 6.1897 36.3301C6.72095 36.3735 7.41897 36.375 8.5 36.375H20.875C21.956 36.375 22.6541 36.3735 23.1853 36.3301C23.6947 36.2885 23.8835 36.2179 23.9762 36.1706C24.329 35.9909 24.6159 35.704 24.7956 35.3512C24.8429 35.2585 24.9135 35.0697 24.9551 34.5603C24.9985 34.0291 25 33.331 25 32.25V14.25C25 13.169 24.9985 12.471 24.9551 11.9397C24.9135 11.4303 24.8429 11.2415 24.7956 11.1488C24.6159 10.796 24.329 10.5091 23.9762 10.3294C23.8835 10.2821 23.6947 10.2115 23.1853 10.1699C22.6541 10.1265 21.956 10.125 20.875 10.125H8.5C7.41897 10.125 6.72095 10.1265 6.1897 10.1699ZM8.125 15.75C8.125 14.7145 8.96447 13.875 10 13.875H19.375C20.4105 13.875 21.25 14.7145 21.25 15.75C21.25 16.7855 20.4105 17.625 19.375 17.625H10C8.96447 17.625 8.125 16.7855 8.125 15.75ZM8.125 23.25C8.125 22.2145 8.96447 21.375 10 21.375H19.375C20.4105 21.375 21.25 22.2145 21.25 23.25C21.25 24.2855 20.4105 25.125 19.375 25.125H10C8.96447 25.125 8.125 24.2855 8.125 23.25ZM8.125 30.75C8.125 29.7145 8.96447 28.875 10 28.875H19.375C20.4105 28.875 21.25 29.7145 21.25 30.75C21.25 31.7855 20.4105 32.625 19.375 32.625H10C8.96447 32.625 8.125 31.7855 8.125 30.75Z" fill="#00A98F"/>
</svg>
