<svg width="36" height="40" viewBox="0 0 36 40" fill="none" xmlns="http://www.w3.org/2000/svg">
<path fill-rule="evenodd" clip-rule="evenodd" d="M8.7632 0.91675H23.4035C24.4309 0.916714 25.3171 0.916684 26.0467 0.977274C26.817 1.04124 27.5827 1.18253 28.3173 1.56412C29.3675 2.10966 30.2238 2.96595 30.7693 4.01615C31.1509 4.75074 31.2922 5.5164 31.3561 6.28668C31.4167 7.01628 31.4167 7.90255 31.4167 8.92991V21.0418C31.4167 22.1003 30.5585 22.9584 29.5 22.9584C28.4415 22.9584 27.5833 22.1003 27.5833 21.0418V9.00508C27.5833 7.88139 27.5818 7.15582 27.536 6.60393C27.492 6.07498 27.4175 5.87945 27.3675 5.78322C27.1857 5.43315 26.9003 5.14772 26.5502 4.96588C26.454 4.91589 26.2584 4.84138 25.7295 4.79746C25.1776 4.75163 24.452 4.75008 23.3283 4.75008H8.83834C7.71464 4.75008 6.98907 4.75163 6.43718 4.79746C5.90823 4.84138 5.71271 4.91589 5.61647 4.96588C5.2664 5.14772 4.98097 5.43315 4.79913 5.78322C4.74914 5.87945 4.67464 6.07498 4.63071 6.60393C4.58488 7.15582 4.58334 7.88139 4.58334 9.00508V31.1618C4.58334 32.2854 4.58488 33.011 4.63071 33.5629C4.67464 34.0919 4.74914 34.2874 4.79913 34.3836C4.98097 34.7337 5.2664 35.0191 5.61647 35.201C5.71271 35.2509 5.90823 35.3255 6.43718 35.3694C6.98907 35.4152 7.71464 35.4168 8.83834 35.4168H14.1667C15.2252 35.4168 16.0833 36.2749 16.0833 37.3334C16.0833 38.392 15.2252 39.2501 14.1667 39.2501H8.76325C7.73585 39.2501 6.84955 39.2502 6.11993 39.1896C5.34965 39.1256 4.58399 38.9843 3.8494 38.6027C2.7992 38.0572 1.94291 37.2009 1.39738 36.1507C1.01579 35.4161 0.874495 34.6504 0.810526 33.8802C0.749936 33.1505 0.749966 32.2643 0.750002 31.2369V8.92994C0.749966 7.90257 0.749936 7.01629 0.810526 6.28668C0.874495 5.5164 1.01579 4.75074 1.39738 4.01615C1.94291 2.96595 2.7992 2.10966 3.8494 1.56412C4.584 1.18253 5.34965 1.04124 6.11993 0.977274C6.84954 0.916684 7.73582 0.916714 8.7632 0.91675ZM8.41667 10.5001C8.41667 9.44154 9.27479 8.58342 10.3333 8.58342H21.8333C22.8919 8.58342 23.75 9.44154 23.75 10.5001C23.75 11.5586 22.8919 12.4168 21.8333 12.4168H10.3333C9.27479 12.4168 8.41667 11.5586 8.41667 10.5001ZM8.41667 18.1668C8.41667 17.1082 9.27479 16.2501 10.3333 16.2501H21.8333C22.8919 16.2501 23.75 17.1082 23.75 18.1668C23.75 19.2253 22.8919 20.0834 21.8333 20.0834H10.3333C9.27479 20.0834 8.41667 19.2253 8.41667 18.1668ZM8.41667 25.8334C8.41667 24.7749 9.27479 23.9168 10.3333 23.9168H14.1667C15.2252 23.9168 16.0833 24.7749 16.0833 25.8334C16.0833 26.892 15.2252 27.7501 14.1667 27.7501H10.3333C9.27479 27.7501 8.41667 26.892 8.41667 25.8334ZM34.6886 28.3115C35.4371 29.06 35.4371 30.2735 34.6886 31.022L27.6996 38.0111C26.5768 39.1338 24.7565 39.1338 23.6337 38.0111L20.478 34.8554C19.7295 34.1069 19.7295 32.8933 20.478 32.1448C21.2266 31.3963 22.4401 31.3963 23.1886 32.1448L25.6667 34.6228L31.978 28.3115C32.7266 27.563 33.9401 27.563 34.6886 28.3115Z" fill="#00A98F"/>
</svg>
