<svg width="33" height="39" viewBox="0 0 33 39" fill="none" xmlns="http://www.w3.org/2000/svg">
<path fill-rule="evenodd" clip-rule="evenodd" d="M8.464 0.875002H22.786C23.7911 0.874967 24.6581 0.874937 25.3718 0.934211C26.1254 0.996788 26.8744 1.13501 27.593 1.5083C28.6204 2.04198 29.458 2.87965 29.9917 3.90702C30.365 4.62565 30.5032 5.37466 30.5658 6.12819C30.6251 6.84193 30.625 7.70894 30.625 8.71397V21.5C30.625 22.5355 29.7855 23.375 28.75 23.375C27.7145 23.375 26.875 22.5355 26.875 21.5V8.7875C26.875 7.68824 26.8735 6.97844 26.8287 6.43854C26.7857 5.92109 26.7128 5.72982 26.6639 5.63567C26.486 5.29322 26.2068 5.014 25.8643 4.8361C25.7702 4.7872 25.5789 4.71432 25.0615 4.67135C24.5216 4.62651 23.8118 4.625 22.7125 4.625H8.5375C7.43824 4.625 6.72844 4.62651 6.18854 4.67135C5.67109 4.71432 5.47982 4.7872 5.38568 4.8361C5.04322 5.014 4.764 5.29322 4.5861 5.63568C4.5372 5.72982 4.46432 5.92109 4.42135 6.43855C4.37651 6.97844 4.375 7.68824 4.375 8.7875V30.4625C4.375 31.5618 4.37651 32.2716 4.42135 32.8115C4.46432 33.3289 4.5372 33.5202 4.5861 33.6143C4.76399 33.9568 5.04322 34.236 5.38567 34.4139C5.47982 34.4628 5.67109 34.5357 6.18855 34.5787C6.72844 34.6235 7.43824 34.625 8.5375 34.625H13.75C14.7855 34.625 15.625 35.4645 15.625 36.5C15.625 37.5355 14.7855 38.375 13.75 38.375H8.46405C7.45899 38.375 6.59195 38.3751 5.87819 38.3158C5.12466 38.2532 4.37565 38.115 3.65702 37.7417C2.62966 37.208 1.79198 36.3704 1.2583 35.343C0.885008 34.6244 0.746788 33.8754 0.684211 33.1218C0.624937 32.4081 0.624967 31.5411 0.625002 30.536V8.714C0.624967 7.70896 0.624937 6.84194 0.684211 6.12819C0.746788 5.37466 0.885007 4.62565 1.2583 3.90702C1.79198 2.87965 2.62965 2.04198 3.65702 1.5083C4.37565 1.13501 5.12466 0.996788 5.87819 0.934211C6.59194 0.874937 7.45896 0.874967 8.464 0.875002ZM8.125 10.25C8.125 9.21447 8.96447 8.375 10 8.375H21.25C22.2855 8.375 23.125 9.21447 23.125 10.25C23.125 11.2855 22.2855 12.125 21.25 12.125H10C8.96447 12.125 8.125 11.2855 8.125 10.25ZM8.125 17.75C8.125 16.7145 8.96447 15.875 10 15.875H21.25C22.2855 15.875 23.125 16.7145 23.125 17.75C23.125 18.7855 22.2855 19.625 21.25 19.625H10C8.96447 19.625 8.125 18.7855 8.125 17.75ZM8.125 25.25C8.125 24.2145 8.96447 23.375 10 23.375H13.75C14.7855 23.375 15.625 24.2145 15.625 25.25C15.625 26.2855 14.7855 27.125 13.75 27.125H10C8.96447 27.125 8.125 26.2855 8.125 25.25ZM31.9508 27.6742C32.683 28.4065 32.683 29.5937 31.9508 30.3259L29.5266 32.75L31.9509 35.1741C32.6831 35.9063 32.6831 37.0935 31.9509 37.8258C31.2187 38.558 30.0315 38.558 29.2992 37.8258L26.8749 35.4016L24.4509 37.8255C23.7187 38.5577 22.5315 38.5577 21.7993 37.8255C21.0671 37.0932 21.0671 35.906 21.7993 35.1738L24.2233 32.75L21.7993 30.3261C21.0671 29.5939 21.0671 28.4067 21.7993 27.6744C22.5315 26.9422 23.7187 26.9422 24.4509 27.6744L26.8749 30.0983L29.2991 27.6742C30.0314 26.942 31.2186 26.942 31.9508 27.6742Z" fill="#00A98F"/>
</svg>
