<svg width="39" height="39" viewBox="0 0 39 39" fill="none" xmlns="http://www.w3.org/2000/svg">
<path fill-rule="evenodd" clip-rule="evenodd" d="M8.55273 0.750002H9.82227C10.8107 0.749968 11.6634 0.749939 12.3657 0.807321C13.107 0.867885 13.8442 1.0016 14.5537 1.36309C15.6121 1.90238 16.4726 2.7629 17.0119 3.82131C17.3734 4.53077 17.5071 5.26805 17.5677 6.00933C17.6251 6.71166 17.625 7.56435 17.625 8.55277V9.44222L18.2067 8.86053C18.9056 8.16157 19.5085 7.55859 20.0458 7.10253C20.6127 6.6212 21.2286 6.19441 21.9859 5.94836C23.1157 5.58128 24.3326 5.58128 25.4624 5.94836C26.2196 6.19441 26.8355 6.6212 27.4025 7.10253C27.9397 7.55858 28.5426 8.16154 29.2415 8.86047L30.1393 9.75824C30.8382 10.4571 31.4411 11.06 31.8971 11.5971C32.3784 12.1641 32.8052 12.78 33.0513 13.5373C33.4184 14.6671 33.4184 15.884 33.0513 17.0137C32.8052 17.771 32.3785 18.3869 31.8971 18.9539C31.4411 19.4911 30.8381 20.094 30.1392 20.7929L29.5571 21.375H30.4472C31.4357 21.375 32.2883 21.3749 32.9907 21.4323C33.732 21.4929 34.4692 21.6266 35.1787 21.9881C36.2371 22.5274 37.0976 23.3879 37.6369 24.4463C37.9984 25.1558 38.1321 25.8931 38.1927 26.6343C38.2501 27.3366 38.25 28.1893 38.25 29.1777V30.4473C38.25 31.4357 38.2501 32.2884 38.1927 32.9907C38.1321 33.732 37.9984 34.4692 37.6369 35.1787C37.0976 36.2371 36.2371 37.0976 35.1787 37.6369C34.4692 37.9984 33.732 38.1321 32.9907 38.1927C32.2884 38.2501 31.4357 38.25 30.4473 38.25H10.033C7.58668 38.5089 5.04881 37.7008 3.17384 35.8258C3.03558 35.6876 2.92343 35.5331 2.83738 35.3685C1.53769 33.8843 0.750003 31.9404 0.750003 29.8125L0.750002 8.55273C0.749968 7.56433 0.749939 6.71165 0.807321 6.00933C0.867885 5.26805 1.0016 4.53077 1.36309 3.82131C1.90238 2.7629 2.7629 1.90238 3.82131 1.36309C4.53077 1.0016 5.26805 0.867885 6.00933 0.807321C6.71165 0.749939 7.56433 0.749968 8.55273 0.750002ZM15.1075 35.8246C15.1384 35.7941 15.1691 35.7634 15.1996 35.7325L16.4321 34.5H30.375C31.456 34.5 32.1541 34.4985 32.6853 34.4551C33.1947 34.4135 33.3835 34.3429 33.4762 34.2956C33.829 34.1159 34.1159 33.829 34.2956 33.4762C34.3429 33.3835 34.4135 33.1947 34.4551 32.6853C34.4985 32.1541 34.5 31.456 34.5 30.375V29.25C34.5 28.169 34.4985 27.471 34.4551 26.9397C34.4135 26.4303 34.3429 26.2415 34.2956 26.1488C34.1159 25.796 33.829 25.5091 33.4762 25.3294C33.3835 25.2821 33.1947 25.2115 32.6853 25.1699C32.1541 25.1265 31.456 25.125 30.375 25.125H25.8071L16.4321 34.5H16.2042C17.1016 33.1593 17.625 31.547 17.625 29.8125V28.0038L27.4364 18.1923C28.2008 17.4279 28.6934 16.9333 29.0384 16.527C29.3691 16.1374 29.4527 15.9539 29.4848 15.8549C29.6072 15.4784 29.6072 15.0727 29.4848 14.6961C29.4527 14.5972 29.3691 14.4137 29.0383 14.0241C28.6934 13.6177 28.2008 13.1231 27.4364 12.3587L26.6409 11.5632C25.8765 10.7988 25.3819 10.3063 24.9756 9.96131C24.586 9.63056 24.4025 9.54697 24.3035 9.51482C23.927 9.39246 23.5213 9.39246 23.1447 9.51482C23.0458 9.54697 22.8623 9.63056 22.4727 9.96131C22.0663 10.3063 21.5717 10.7988 20.8073 11.5632L17.625 14.7455V28.0038L12.5363 33.0925C13.3644 32.2471 13.875 31.0894 13.875 29.8125V8.625C13.875 7.54397 13.8735 6.84595 13.8301 6.3147C13.7885 5.80533 13.7179 5.61648 13.6706 5.52377C13.4909 5.17097 13.204 4.88413 12.8512 4.70437C12.7585 4.65713 12.5697 4.58648 12.0603 4.54487C11.5291 4.50146 10.831 4.5 9.75 4.5H8.625C7.54397 4.5 6.84595 4.50146 6.3147 4.54487C5.80533 4.58648 5.61648 4.65713 5.52377 4.70437C5.17097 4.88413 4.88413 5.17097 4.70437 5.52377C4.65713 5.61648 4.58648 5.80533 4.54487 6.3147C4.50146 6.84595 4.5 7.54397 4.5 8.625V29.8125C4.5 32.4013 6.59867 34.5 9.1875 34.5M12.5363 33.0925L12.4675 33.1613C12.4906 33.1386 12.5136 33.1157 12.5363 33.0925ZM12.4675 33.1613C11.6221 33.9894 10.4644 34.5 9.1875 34.5L12.4675 33.1613ZM6.375 29.8125C6.375 28.2592 7.6342 27 9.1875 27C10.7408 27 12 28.2592 12 29.8125C12 31.3658 10.7408 32.625 9.1875 32.625C7.6342 32.625 6.375 31.3658 6.375 29.8125Z" fill="#00A98F"/>
</svg>
