<svg width="38" height="44" viewBox="0 0 38 44" fill="none" xmlns="http://www.w3.org/2000/svg">
<path fill-rule="evenodd" clip-rule="evenodd" d="M12.6428 0.91675H29.2739C30.2842 0.916715 31.1559 0.916686 31.8738 0.975343C32.6315 1.03725 33.3852 1.17394 34.1104 1.54346C35.1924 2.09474 36.072 2.97437 36.6233 4.05631C36.9928 4.78153 37.1295 5.5352 37.1914 6.29295C37.25 7.01087 37.25 7.88248 37.25 8.89283V35.1073C37.25 36.1177 37.25 36.9893 37.1914 37.7072C37.1295 38.465 36.9928 39.2186 36.6233 39.9439C36.072 41.0258 35.1924 41.9054 34.1104 42.4567C33.3852 42.8262 32.6315 42.9629 31.8738 43.0248C31.1559 43.0835 30.2843 43.0835 29.2739 43.0834H12.6427C11.6324 43.0835 10.7608 43.0835 10.0428 43.0248C9.2851 42.9629 8.53143 42.8262 7.8062 42.4567C6.72427 41.9054 5.84463 41.0258 5.29336 39.9439C4.92384 39.2186 4.78715 38.465 4.72524 37.7072C4.67266 37.0636 4.66723 36.2966 4.6667 35.4167C2.54961 35.4167 0.833313 33.7005 0.833313 31.5834C0.833313 29.4663 2.54955 27.7501 4.66665 27.7501V16.2501C2.54955 16.2501 0.833313 14.5338 0.833313 12.4168C0.833313 10.2997 2.54955 8.58342 4.66665 8.58342C4.66718 7.7036 4.67266 6.93652 4.72524 6.29295C4.78715 5.5352 4.92384 4.78153 5.29336 4.05631C5.84463 2.97437 6.72427 2.09474 7.8062 1.54346C8.53143 1.17394 9.2851 1.03725 10.0428 0.975343C10.7608 0.916686 11.6324 0.916715 12.6428 0.91675ZM8.49998 8.96675C8.49998 7.86169 8.50147 7.14817 8.54584 6.6051C8.58838 6.08441 8.6606 5.89137 8.70888 5.7966C8.89264 5.43596 9.18585 5.14275 9.5465 4.95899C9.64127 4.9107 9.83431 4.83849 10.355 4.79595C10.8325 4.75693 11.4419 4.75107 12.3333 4.75022V39.2499C11.4419 39.2491 10.8325 39.2432 10.355 39.2042C9.83431 39.1617 9.64127 39.0895 9.5465 39.0412C9.18585 38.8574 8.89264 38.5642 8.70888 38.2036C8.6606 38.1088 8.58838 37.9158 8.54584 37.3951C8.50147 36.852 8.49998 36.1385 8.49998 35.0334V8.96675ZM16.1666 39.2501H29.2C30.305 39.2501 31.0186 39.2486 31.5616 39.2042C32.0823 39.1617 32.2754 39.0895 32.3701 39.0412C32.7308 38.8574 33.024 38.5642 33.2077 38.2036C33.256 38.1088 33.3282 37.9158 33.3708 37.3951C33.4152 36.852 33.4166 36.1385 33.4166 35.0334V8.96675C33.4166 7.86169 33.4152 7.14817 33.3708 6.6051C33.3282 6.08441 33.256 5.89137 33.2077 5.7966C33.024 5.43596 32.7308 5.14275 32.3701 4.95899C32.2754 4.9107 32.0823 4.83849 31.5616 4.79595C31.0186 4.75158 30.305 4.75008 29.2 4.75008H16.1666V39.2501Z" fill="#00A98F"/>
</svg>
