<svg width="37" height="37" viewBox="0 0 37 37" fill="none" xmlns="http://www.w3.org/2000/svg">
<path fill-rule="evenodd" clip-rule="evenodd" d="M9.23754 4.54201C8.79728 4.31933 8.27735 4.31933 7.83708 4.54201C7.68315 4.61987 7.4767 4.793 6.46201 5.80768L6.19195 6.07774C5.22723 7.04246 4.98694 7.30341 4.79333 7.64806C4.56731 8.05043 4.37363 8.79518 4.37501 9.25668C4.37622 9.6665 4.43363 9.90788 4.71757 10.9083C6.10754 15.8054 8.72958 20.4269 12.5888 24.2862C16.4481 28.1454 21.0696 30.7675 25.9667 32.1574C26.9671 32.4414 27.2085 32.4988 27.6183 32.5C28.0798 32.5014 28.8246 32.3077 29.2269 32.0817C29.5716 31.8881 29.8325 31.6478 30.7973 30.6831L31.0673 30.413C32.082 29.3983 32.2551 29.1918 32.333 29.0379C32.5557 28.5977 32.5557 28.0777 32.333 27.6375C32.2551 27.4835 32.082 27.2771 31.0673 26.2624L32.3931 24.9366L31.0673 26.2624L30.7335 25.9285C30.0668 25.2619 29.9325 25.1421 29.8377 25.0805C29.3235 24.7461 28.6606 24.7461 28.1464 25.0805C28.0515 25.1421 27.9172 25.2619 27.2506 25.9285C27.2375 25.9416 27.224 25.9552 27.21 25.9692C27.0575 26.1223 26.8535 26.3272 26.6081 26.5029L25.5165 24.9784L26.6081 26.5029C25.7334 27.1292 24.5478 27.3314 23.5149 27.0303C23.2267 26.9463 22.9891 26.8317 22.8141 26.7473C22.7998 26.7404 22.786 26.7337 22.7725 26.7273C20.1009 25.4446 17.5988 23.6967 15.3886 21.4864C13.1783 19.2762 11.4304 16.7741 10.1477 14.1025C10.1413 14.089 10.1346 14.0752 10.1277 14.0609C10.0433 13.8859 9.92869 13.6483 9.84466 13.3601L11.6273 12.8404L9.84466 13.3601C9.54359 12.3272 9.74577 11.1416 10.3721 10.2669L10.3721 10.2669C10.5478 10.0215 10.7527 9.81749 10.9058 9.665C10.9198 9.65104 10.9334 9.63751 10.9465 9.62442C11.6131 8.95778 11.7329 8.82345 11.7945 8.72865L11.7945 8.72864C12.1289 8.21443 12.1289 7.55153 11.7945 7.03732C11.7329 6.94251 11.6131 6.80817 10.9465 6.14153L10.6126 5.80768C9.59792 4.79299 9.39147 4.61987 9.23754 4.54201ZM6.14454 1.1957C7.64897 0.434766 9.42565 0.434765 10.9301 1.1957C11.6956 1.58289 12.3576 2.24686 13.0943 2.98572C13.1505 3.04208 13.2071 3.09888 13.2643 3.15603L13.5981 3.48988C13.6358 3.52754 13.6732 3.56487 13.7103 3.6019C14.1966 4.08723 14.6319 4.52173 14.9385 4.99323L13.3665 6.01527L14.9385 4.99323C16.0809 6.75036 16.0809 9.0156 14.9385 10.7727C14.6319 11.2442 14.1966 11.6787 13.7103 12.164C13.6732 12.2011 13.6358 12.2384 13.5981 12.2761C13.552 12.3222 13.5161 12.3581 13.4852 12.3894C13.4972 12.4148 13.5112 12.4439 13.5283 12.4794C14.6303 14.7747 16.1334 16.9279 18.0402 18.8348C19.9471 20.7416 22.1003 22.2447 24.3956 23.3467L23.5841 25.037L24.3956 23.3467C24.4311 23.3638 24.4602 23.3778 24.4856 23.3898C24.5169 23.3589 24.5528 23.323 24.5989 23.2769C24.6366 23.2392 24.6739 23.2018 24.711 23.1647C25.1963 22.6784 25.6308 22.2431 26.1023 21.9365C27.8594 20.7941 30.1246 20.7941 31.8818 21.9365C32.3533 22.2431 32.7878 22.6785 33.2731 23.1647C33.3102 23.2018 33.3475 23.2392 33.3851 23.2769L32.2066 24.4554L33.3851 23.2769L33.719 23.6107C33.7761 23.6679 33.8329 23.7245 33.8893 23.7807C34.6281 24.5174 35.2921 25.1794 35.6793 25.9449C36.4402 27.4493 36.4402 29.226 35.6793 30.7305C35.2921 31.496 34.6281 32.158 33.8893 32.8947C33.8329 32.9509 33.7761 33.0075 33.719 33.0646L33.4489 33.3347C33.4077 33.3759 33.367 33.4166 33.3268 33.4569C32.5357 34.2489 31.9094 34.8759 31.0635 35.3511C30.097 35.8941 28.7157 36.2533 27.6072 36.25C26.639 36.2471 25.9302 36.0456 25.0449 35.7939C25.0111 35.7843 24.9771 35.7747 24.9428 35.7649C19.4463 34.2049 14.2601 31.2608 9.93718 26.9378C5.61422 22.6149 2.67015 17.4287 1.11007 11.9322C1.10033 11.8979 1.09066 11.8639 1.08106 11.8301C0.829411 10.9449 0.627902 10.236 0.625023 9.26783C0.621723 8.15927 0.980939 6.77797 1.52387 5.81146L1.52387 5.81145C1.99906 4.96555 2.62608 4.33927 3.41807 3.54822C3.45839 3.50796 3.49913 3.46726 3.5403 3.42609L4.86613 4.75192L3.5403 3.42609L3.81036 3.15603C3.86751 3.09888 3.92414 3.04208 3.98034 2.98572C4.71702 2.24686 5.37903 1.58289 6.14453 1.1957L6.99081 2.86886L6.14454 1.1957ZM21.25 2.5C21.25 1.46447 22.0895 0.625 23.125 0.625H30.8427C32.7935 0.625 34.375 2.20645 34.375 4.15728L34.375 11.875C34.375 12.9105 33.5355 13.75 32.5 13.75C31.4645 13.75 30.625 12.9105 30.625 11.875L30.625 7.02665L22.5758 15.0758C21.8436 15.8081 20.6564 15.8081 19.9242 15.0758C19.1919 14.3436 19.1919 13.1564 19.9242 12.4242L27.9734 4.375H23.125C22.0895 4.375 21.25 3.53553 21.25 2.5Z" fill="#00A98F"/>
</svg>
