<svg width="41" height="40" viewBox="0 0 41 40" fill="none" xmlns="http://www.w3.org/2000/svg">
<path fill-rule="evenodd" clip-rule="evenodd" d="M22.9204 1.17267C25.4931 0.143581 28.2917 2.0383 28.2917 4.8092V7.79173C29.1906 7.79228 29.9744 7.79782 30.6319 7.85154C31.4062 7.9148 32.1762 8.05446 32.9172 8.43201C34.0227 8.99527 34.9214 9.89403 35.4847 10.9995C35.8622 11.7405 36.0019 12.5105 36.0651 13.2847C36.1251 14.0183 36.125 14.9088 36.125 15.9412V17.5994C36.2182 17.6038 36.3086 17.6094 36.3957 17.6165C36.8434 17.6531 37.3716 17.7394 37.9031 18.0102C38.6401 18.3857 39.2393 18.9849 39.6148 19.7219C39.8856 20.2534 39.9719 20.7817 40.0085 21.2293C40.0418 21.6369 40.0417 22.1183 40.0417 22.6125V24.3042C40.0417 24.7984 40.0418 25.2797 40.0085 25.6874C39.9719 26.135 39.8856 26.6633 39.6148 27.1948C39.2393 27.9318 38.6401 28.5309 37.9031 28.9065C37.3716 29.1773 36.8434 29.2636 36.3957 29.3002C36.3086 29.3073 36.2182 29.3129 36.125 29.3173V30.9755C36.125 32.0079 36.1251 32.8984 36.0651 33.6319C36.0019 34.4062 35.8622 35.1762 35.4847 35.9172C34.9214 37.0227 34.0227 37.9214 32.9172 38.4847C32.1762 38.8622 31.4062 39.0019 30.6319 39.0651C29.8984 39.1251 29.0078 39.125 27.9755 39.125H9.02448C7.99216 39.125 7.1016 39.1251 6.36807 39.0651C5.59386 39.0019 4.8238 38.8622 4.08281 38.4847C2.97736 37.9214 2.0786 37.0227 1.51534 35.9172C1.13779 35.1762 0.998125 34.4062 0.934869 33.6319C0.874936 32.8984 0.874967 32.0078 0.875002 30.9755V15.9412C0.874967 14.9089 0.874936 14.0183 0.934869 13.2847C0.998125 12.5105 1.13779 11.7405 1.51534 10.9995C2.0786 9.89403 2.97736 8.99527 4.08281 8.43201C4.76411 8.08488 5.46997 7.93885 6.18105 7.8684L22.9204 1.17267ZM16.9188 7.79168H24.375L24.375 4.8092L16.9188 7.79168ZM9.1 11.7083C7.97092 11.7083 7.24188 11.7099 6.68702 11.7552C6.15501 11.7987 5.95777 11.8725 5.86094 11.9218C5.49246 12.1095 5.19287 12.4091 5.00512 12.7776C4.95578 12.8744 4.88199 13.0717 4.83853 13.6037C4.79319 14.1586 4.79167 14.8876 4.79167 16.0167V30.9C4.79167 32.0291 4.79319 32.7581 4.83853 33.313C4.88199 33.845 4.95578 34.0423 5.00512 34.1391C5.19287 34.5076 5.49245 34.8071 5.86094 34.9949C5.95777 35.0442 6.15501 35.118 6.68702 35.1615C7.24188 35.2068 7.97092 35.2083 9.1 35.2083H27.9C29.0291 35.2083 29.7581 35.2068 30.313 35.1615C30.845 35.118 31.0422 35.0442 31.1391 34.9949C31.5076 34.8071 31.8071 34.5076 31.9949 34.1391C32.0442 34.0423 32.118 33.845 32.1615 33.313C32.2068 32.7581 32.2083 32.0291 32.2083 30.9V29.3333L27.4459 29.3333C26.9516 29.3334 26.4703 29.3335 26.0626 29.3002C25.615 29.2636 25.0867 29.1773 24.5552 28.9065C23.8182 28.5309 23.2191 27.9318 22.8436 27.1948C22.5727 26.6633 22.4864 26.135 22.4499 25.6874C22.4165 25.2797 22.4166 24.7984 22.4167 24.3041V22.6126C22.4166 22.1183 22.4165 21.637 22.4499 21.2293C22.4864 20.7817 22.5727 20.2534 22.8436 19.7219C23.2191 18.9849 23.8182 18.3857 24.5552 18.0102C25.0867 17.7394 25.615 17.6531 26.0626 17.6165C26.4703 17.5832 26.9516 17.5833 27.4459 17.5833L32.2083 17.5833V16.0167C32.2083 14.8876 32.2068 14.1586 32.1615 13.6037C32.118 13.0717 32.0442 12.8744 31.9949 12.7776C31.8071 12.4091 31.5076 12.1095 31.1391 11.9218C31.0422 11.8725 30.845 11.7987 30.313 11.7552C29.7581 11.7099 29.0291 11.7083 27.9 11.7083H9.1ZM26.3558 21.5224C26.355 21.5306 26.3543 21.5392 26.3535 21.5483C26.3349 21.7766 26.3333 22.0943 26.3333 22.675V24.2417C26.3333 24.8224 26.3349 25.1401 26.3535 25.3684C26.3543 25.3775 26.355 25.3861 26.3558 25.3943C26.3639 25.395 26.3725 25.3958 26.3816 25.3965C26.6099 25.4152 26.9276 25.4167 27.5083 25.4167H34.95C35.5307 25.4167 35.8484 25.4152 36.0768 25.3965C36.0858 25.3958 36.0945 25.395 36.1026 25.3942C36.1033 25.3861 36.1041 25.3775 36.1048 25.3684C36.1235 25.1401 36.125 24.8224 36.125 24.2417V22.675C36.125 22.0943 36.1235 21.7766 36.1048 21.5483C36.1041 21.5392 36.1033 21.5306 36.1026 21.5224C36.0944 21.5217 36.0858 21.5209 36.0768 21.5202C35.8484 21.5015 35.5307 21.5 34.95 21.5H27.5083C26.9276 21.5 26.6099 21.5015 26.3816 21.5202C26.3725 21.5209 26.3639 21.5217 26.3558 21.5224Z" fill="#00A98F"/>
</svg>
