<svg width="25" height="41" viewBox="0 0 25 41" fill="none" xmlns="http://www.w3.org/2000/svg">
<path fill-rule="evenodd" clip-rule="evenodd" d="M12.4993 9.69271L5.13186 24.4276L8.64228 23.0235L9.33864 24.7644L8.64228 23.0235C10.4897 22.2845 12.4993 23.6451 12.4993 25.6348V31.3075L19.8668 16.5725L16.3564 17.9767C14.5089 18.7157 12.4993 17.3551 12.4993 15.3654V9.69271ZM12.3421 1.62197C13.3154 -0.324666 16.2493 0.367955 16.2493 2.54435V13.9806L20.7635 12.175C23.1647 11.2145 25.4802 13.731 24.3236 16.0441L12.6566 39.3782L10.9795 38.5397L12.6566 39.3782C11.6833 41.3248 8.74932 40.6322 8.74932 38.4558V27.0195L4.23512 28.8252L3.55542 27.126L4.23512 28.8252C1.83394 29.7857 -0.481545 27.2692 0.67501 24.9561L12.3421 1.62197L13.9886 2.44525L14.0037 2.4528M12.3421 1.62197L13.9886 2.44525L12.3421 1.62197Z" fill="#00A98F"/>
</svg>
